<svg fill="none" height="28" viewBox="0 0 28 28" width="28" xmlns="http://www.w3.org/2000/svg"><circle cx="14" cy="14" r="13.25" stroke="#303030" stroke-width="1.5"/><path d="m9.96913 22.2123-4.06655 2.1805c-.23863.1279-.45309.2851-.65264.4565 2.37091 1.9651 5.43146 3.1507 8.77546 3.1507 3.3193 0 6.3603-1.1679 8.7245-3.1062-.218-.181-.4546-.3438-.7169-.4722l-4.3545-2.1401c-.5627-.2765-.9181-.8417-.9181-1.46v-1.6795c.1224-.137.2623-.313.412-.5208.5935-.824 1.0425-1.7305 1.3536-2.6815.5585-.1694.97-.6764.97-1.2791v-1.7927c0-.3944-.1785-.7467-.4557-.9935v-2.59149s.5416-4.03291-5.0144-4.03291c-5.55594 0-5.01439 4.03291-5.01439 4.03291v2.59149c-.27772.2468-.45567.5991-.45567.9935v1.7927c0 .4722.25252.8878.63053 1.1279.45567 1.95 1.64883 3.3535 1.64883 3.3535v1.638c-.0005.5966-.3327 1.1461-.86607 1.4323z" fill="#303030"/></svg>
