<svg fill="none" height="22" viewBox="0 0 25 22" width="25" xmlns="http://www.w3.org/2000/svg"><path d="m22.1895 2.96468c-1.1274-1.26696-2.6914-1.96468-4.4038-1.96468-2.4084 0-3.9332 1.42463-4.7882 2.61978-.2218.31013-.4105.6211-.5689.91372-.1585-.29262-.3471-.60359-.569-.91372-.855-1.19515-2.37978-2.61978-4.78817-2.61978-1.71241 0-3.27639.69777-4.4038 1.96472-1.07535 1.2086-1.66763 2.82725-1.66763 4.55776 0 1.88372.74254 3.63572 2.33683 5.51372 1.42487 1.6784 3.47473 3.4085 5.84844 5.4118.88453.7466 1.79923 1.5186 2.77303 2.3624l.0292.0254c.1262.1095.2837.1642.4411.1642s.3148-.0547.441-.1642l.0293-.0254c.9738-.8438 1.8885-1.6158 2.7731-2.3624 2.3736-2.0033 4.4234-3.7334 5.8483-5.4118 1.5943-1.878 2.3368-3.63 2.3368-5.51372 0-1.73051-.5922-3.34916-1.6676-4.5578z" stroke="#303030" stroke-width="2"/></svg>