<svg height="12" viewBox="0 0 13 12" width="13" xmlns="http://www.w3.org/2000/svg"><path d="m13 3.49104547c0-.24474822-.0255125-.48330027-.0732875-.71386255-.3284125-1.58556404-1.7281875-2.77718292-3.4058375-2.77718292-.719875 0-1.3885625.21947441-1.9435.59515721-.4431375.30002446-.8113625.70114412-1.077375 1.16846482-.2660125-.4673207-.6342375-.86844036-1.077375-1.16846482-.5549375-.3756828-1.223625-.59515721-1.9435-.59515721-1.67765 0-3.077425 1.19161888-3.4058375 2.77718292-.047775.23056228-.0732875.46911433-.0732875.71386255 0 .05348262.003575.10614995.0060125.15898035-.000325.02592602-.00195.05136288-.00195.07728891 0 3.6063266 6.4959375 8.27268527 6.4959375 8.27268527s6.4959375-4.66635867 6.4959375-8.27252222c0-.02592602-.001625-.05152594-.00195-.07728891.0024375-.05299345.0060125-.10566078.0060125-.1591434z" fill-rule="evenodd"/></svg>