<svg height="15" viewBox="0 0 18 15" width="18" xmlns="http://www.w3.org/2000/svg"><path d="m16.5721 1.46794c-.9318-.946596-2.2104-1.46794-3.6004-1.46794-1.039 0-1.9906.307687-2.8283.914443-.4227.306267-.80571.680977-1.1434 1.118327-.33755-.43722-.7207-.81206-1.14354-1.118327-.83757-.606756-1.78912-.914443-2.82815-.914443-1.39005 0-2.66872.521344-3.6005 1.46794-.920654.93554-1.42781 2.21363-1.42781 3.59899 0 1.42588.567307 2.73111 1.78528 4.10773 1.08957 1.23134 2.65553 2.48144 4.46896 3.92894.61922.4943 1.32111 1.0546 2.04991 1.6515.19254.1579.43959.2449.69585.2449.25612 0 .50331-.087.69557-.2447.72883-.5969 1.43113-1.1575 2.05063-1.6521 1.8131-1.4472 3.3791-2.6972 4.4687-3.92867 1.2179-1.37649 1.7851-2.68172 1.7851-4.10773 0-1.38523-.5072-2.66332-1.4279-3.59886z"/></svg>