<svg fill="none" height="20" viewBox="0 0 20 20" width="20" xmlns="http://www.w3.org/2000/svg"><g fill="#fff"><path d="m15.214 0c-1.278 0-2.4798.498061-3.3838 1.40197l-3.72666 3.72671c.28482-.03976.56936-.08294.8605-.08294.80274 0 1.58936.15595 2.31246.44511l2.3213-2.32132c.4322-.43153 1.0059-.66957 1.6162-.66957 1.2604 0 2.2858 1.02538 2.2858 2.28575 0 .61037-.2381 1.18408-.6696 1.61619l-4.1784 4.1785c-.8642.863-2.3681.8636-3.23237.0006l-1.76635 1.7688c.90333.9027 2.10509 1.4001 3.38252 1.4001 1.2781 0 2.4798-.498 3.3838-1.402l4.1784-4.1784c.904-.90392 1.402-2.10572 1.402-3.38379 0-2.63911-2.1466-4.78571-4.7858-4.78571z"/><path d="m8.70134 14.531-2.2994 2.2994c-.43211.4316-1.00586.6696-1.61619.6696-1.26038 0-2.28575-1.0254-2.28575-2.2857 0-.6104.23804-1.1841.66957-1.6162l4.17845-4.17849c.86426-.86302 2.36814-.86364 3.23238-.00062l1.7664-1.76879c-1.8073-1.80542-4.95848-1.806-6.76634.00182l-4.17849 4.17848c-.903948.9039-1.40197 2.1056-1.40197 3.3837 0 2.6392 2.1466 4.7857 4.78571 4.7857 1.27807 0 2.47983-.498 3.38378-1.4019l3.67721-3.6773c-.2684.0361-.5355.0793-.811.0793-.8152 0-1.60462-.163-2.33436-.469z"/></g></svg>