<svg fill="none" height="18" viewBox="0 0 13 18" width="13" xmlns="http://www.w3.org/2000/svg" xmlns:xlink="http://www.w3.org/1999/xlink"><mask id="a" height="9" maskUnits="userSpaceOnUse" width="13" x="0" y="9"><path clip-rule="evenodd" d="m.839844 9h11.550756v9h-11.550756z" fill="#fff" fill-rule="evenodd"/></mask><path clip-rule="evenodd" d="m6.61534 2.63751c1.05458 0 1.91296.83572 1.91296 1.86341 0 1.02641-.85838 1.86256-1.91296 1.86256-1.05429 0-1.91282-.83615-1.91282-1.86256 0-1.02769.85853-1.86341 1.91282-1.86341zm0 6.36249c2.54795 0 4.62016-2.01798 4.62016-4.49908 0-2.48224-2.07221-4.50092-4.62016-4.50092s-4.62047 2.01868-4.62047 4.50092c0 2.4811 2.07252 4.49908 4.62047 4.49908z" fill="#fff" fill-rule="evenodd"/><g mask="url(#a)"><path clip-rule="evenodd" d="m8.6974 12.8216c1.04753-.2268 2.0584-.6204 2.9884-1.1761.7045-.4214.9166-1.3057.473-1.97477-.4434-.67041-1.374-.87202-2.0792-.45048-2.10798 1.25925-4.82191 1.25865-6.9288 0-.70553-.42154-1.63577-.21993-2.07886.45048-.443891.66967-.231988 1.55337.47274 1.97477.92991.5551 1.94034.9493 2.98771 1.1761l-2.87674 2.7334c-.5884.5594-.5884 1.4658.00065 2.0255.29469.2792.67994.4193 1.06535.4193.38655 0 .77245-.1401 1.06681-.4193l2.82652-2.6861 2.82846 2.6861c.58776.5593 1.54246.5593 2.13086 0 .59-.5597.59-1.4667 0-2.0255z" fill="#fff" fill-rule="evenodd"/></g></svg>