<svg fill="none" height="14" viewBox="0 0 24 14" width="24" xmlns="http://www.w3.org/2000/svg"><path clip-rule="evenodd" d="m23.0691.97153c.1751-.548042 0-.946619-.7757-.946619h-2.5771c-.6505 0-.9508.348754-1.1259.72242 0 0-1.3261 3.188609-3.1777 5.256229-.6005.59786-.8757.79715-1.201.79715-.1751 0-.4003-.19929-.4003-.74733v-5.106761c0-.647687-.2002-.946619-.7506-.946619h-4.05336c-.40033 0-.65054.298932-.65054.597865 0 .622775.92577.772245 1.02585 2.516015v3.78648c0 .82206-.15012.97153-.47539.97153-.87572 0-3.00248-3.21353-4.27854-6.875449-.2502-.72242-.50041-.996441-1.15095-.996441h-2.602147c-.75062 0-.875723.348754-.875723.72242 0 .6726.875723 4.0605 4.07837 8.54448 2.12676 3.0641 5.15426 4.7082 7.88153 4.7082 1.6513 0 1.8515-.3737 1.8515-.9965v-2.3167c0-.74731.1501-.87186.6756-.87186.3753 0 1.0508.19928 2.5771 1.66906 1.7514 1.7437 2.0517 2.5409 3.0275 2.5409h2.5771c.7506 0 1.1009-.3737.9008-1.0961-.2252-.7224-1.0759-1.7687-2.1768-3.01422-.6005-.69751-1.5013-1.46975-1.7765-1.84342-.3753-.49822-.2752-.69751 0-1.1459-.025 0 3.1276-4.43417 3.4529-5.92883z" fill="#fff" fill-rule="evenodd"/></svg>