<svg fill="none" height="40" viewBox="0 0 41 40" width="41" xmlns="http://www.w3.org/2000/svg"><path d="m40.0148 4.89374v18.74576c0 2.4135-1.957 4.3705-4.3706 4.3705l-15.1368.0629-8.867 9.7537v-9.7537h-6.26986c-2.41359 0-4.37054-1.9569-4.37054-4.3705v-18.74571c0-2.4136 1.95695-4.370541 4.37054-4.370541l30.27276-.062956c2.4145 0 4.3715 1.956947 4.3715 4.370547z" fill="#fff" stroke="#ff1f6b"/><g fill="#ff1f6b"><path d="m20.5074 10.2769h-11.52707c-.49035 0-.8867-.3972-.8867-.88666s.39635-.8867.8867-.8867h11.52707c.4904 0 .8867.39724.8867.8867s-.3963.88666-.8867.88666z"/><path d="m32.0345 15.5971h-23.05417c-.49035 0-.8867-.3972-.8867-.8867 0-.4894.39635-.8867.8867-.8867h23.05417c.4904 0 .8867.3973.8867.8867 0 .4895-.3963.8867-.8867.8867z"/><path d="m32.0345 20.9173h-23.05417c-.49035 0-.8867-.3972-.8867-.8867 0-.4894.39635-.8867.8867-.8867h23.05417c.4904 0 .8867.3973.8867.8867 0 .4895-.3963.8867-.8867.8867z"/></g></svg>