<svg fill="none" height="38" viewBox="0 0 47 38" width="47" xmlns="http://www.w3.org/2000/svg" xmlns:xlink="http://www.w3.org/1999/xlink"><clipPath id="a"><path d="m0 0h46.39v38h-46.39z"/></clipPath><g clip-path="url(#a)" clip-rule="evenodd" fill="#FF1F6B" fill-rule="evenodd"><path d="m38.0002 16.2c-.1062-.0556-.2285-.072-.3455-.0464s-.2213.0916-.2945.1864c-.6374.7471-1.3742 1.4032-2.19 1.95-1.07.91-2.14 1.79-3.1 2.78-2 2.08-3.91 4.28-5.78 6.52-.13.16-.29.32-.56.62-.19-1-.35-1.85-.45-2.78-.28-2.43-.68-4.84-1.01-7.28-.29-2.21-.66-4.43-.74-6.68.0147-.1062.0147-.2139 0-.32-.0052-.1037-.042-.2034-.1053-.2856-.0634-.0823-.1503-.1433-.2492-.1748-.099-.0315-.2052-.0321-.3044-.0017-.0993.0305-.1869.0905-.2511.1721-.2621.2617-.4875.5577-.67.88-.21.4-.35.83-.53 1.25-.46 1.1-.91 2.22-1.39 3.32-1.2134 2.7533-2.4167 5.5166-3.61 8.29-.48 1.12-.91 2.27-1.37 3.42 0 .11-.13.21-.24.35-.24-.4-.45-.75-.64-1.1-1.17-2.14-2.41-4.22-3.69-6.27-.75004-1.15-1.52004-2.3-2.27004-3.48-.50473-.6036-.91906-1.2773-1.23-2 0 0 0 0-.06-.05-.06605-.0834-.15184-.1491-.24961-.191-.09778-.0419-.20446-.0587-.31039-.049-.12134.0222-.23167.0846-.31329.1771-.08161.0925-.12976.2097-.13671.3329v.64c.33 2.62.62 5.24.94 7.86s.62 5.16.83 7.72c.11 1.39.27 2.76.43 4.15.05127.1518.06532.3137.04096.472-.02437.1584-.08643.3086-.18096.438-.03002.0438-.051.0932-.06172.1452s-.01097.1057-.00073.1578c.01024.0522.03077.1017.06037.1458.02961.0442.06771.0819.11208.1112.17351.1125.36204.2.56.26.81314.15 1.64684.15 2.46004 0 1.47-.16 2.94-.42 4.44-.56s2.86-.21 4.3-.26c2.4286-.065 4.8591.0051 7.28.21 1.593.0928 3.1791.2798 4.75.56.23.0552.4699.0552.7 0 .1559-.0348.2989-.1129.4125-.2253.1136-.1123.1933-.2544.2298-.41.0365-.1555.0285-.3182-.0232-.4694s-.145-.2848-.2691-.3853c-.16-.14-.35-.24-.51-.38 0-.13 0-.24 0-.34.56-2.9218 1.3628-5.7918 2.4-8.58 1.15-3.21 2.22-6.39 3.34-9.6.05-.18.11-.35.16-.53.0362-.1303.0249-.2693-.0319-.392s-.1554-.2213-.2781-.278zm-1.87 2.92c-.45 1.17-.93 2.38-1.42 3.55-1.1378 2.7865-2.1193 5.6342-2.94 8.53-.3917 1.4092-.6495 2.8523-.77 4.31 0 .05 0 .08-.09.18-.1397.0147-.2804.0147-.42 0-3.26-.32-6.5-.45-9.76-.48-1.8166.001-3.631.128-5.43.38-1.6449.1757-3.2778.4496-4.89.82-.2599.0854-.54023.0854-.80004 0-.06065-.0858-.0985-.1856-.11-.29-.72-5.62-1.42334-11.2534-2.11-16.9 0-.08 0-.19 0-.29.04224-.0138.08775-.0138.13 0 .11.19.24.35.37.56 1.66 2.86 3.35004 5.72 5.00004 8.56.37.64.8 1.25 1.2 1.87.0857.1342.1863.2583.3.37.0619.0603.1379.1043.2211.1279.0831.0236.1709.0261.2553.0072s.1627-.0585.228-.1152c.0652-.0568.1152-.129.1456-.2099.0539-.1453.0908-.2963.11-.45.1976-1.1238.5335-2.2188 1-3.26.81-1.71 1.53-3.48 2.28-5.21s1.65-3.72 2.46-5.57c.29-.66.56-1.33.83-2 .05-.16.13-.29.18-.43.22 0 .16.16.16.24.24 1.87.46 3.77.7 5.64s.45 3.77.72 5.64c.24 1.58.53 3.16.8 4.74.0512.1807.1147.3578.19.53.0421.0896.1045.1682.1821.2297.0777.0614.1686.104.2655.1244.097.0203.1973.0179.2932-.0071.0958-.025.1845-.0719.2592-.137.1383-.1187.2624-.2529.37-.4 1.47-1.92 3.1-3.71 4.68-5.56.4-.48.77-1 1.15-1.44 1.1975-1.5051 2.537-2.8915 4-4.14l.32-.24h.11c.14.24-.05.48-.13.72z"/><path d="m46.2501 10c-.0881-.14008-.2212-.24607-.3774-.30057-.1563-.05451-.3264-.05431-.4826.00057-.2503.08183-.4915.18905-.72.32-1.0996.6825-2.1078 1.5024-3 2.44-.2578.3089-.4824.6441-.67 1-.0525.0931-.0802.1981-.0802.305s.0277.2119.0802.305c.4173.0227.8327-.0708 1.2-.27.4264-.2108.8374-.4514 1.23-.72.86-.61 1.69-1.28 2.54-1.92.1463-.1132.2744-.2481.38-.4.0746-.1184.1055-.2593.0872-.3981-.0182-.1387-.0845-.2668-.1872-.3619z"/><path d="m10.7498 6.00009c.1897.49965.4417.97338.75 1.41.1748.2658.3909.50208.64.7.0484.04826.1089.08257.1751.09932.0663.01676.1358.01534.2014-.00411.0655-.01945.1245-.05621.1709-.1064s.0784-.11197.0926-.17881c0-.11.05-.24.08-.4-.024-.2168-.0675-.431-.13-.64l-1.05-3.67c-.0806-.27639-.1877-.54431-.32-.8-.0658-.14318-.1768-.26083-.3159-.33489-.139-.07406-.2986-.10045-.4541-.07511-.1731.02845-.3305.11746-.444.25117-.1136.13371-.17597.30341-.17602.47883-.02071.26817-.00048.53792.06002.8.1979.83503.4382 1.65943.72 2.47z"/><path d="m3.34001 8.88014c-.53-.67-1.12-1.29-1.71-1.88-.17684-.19679-.39098-.35655-.63-.47-.115493-.05305-.24311-.07413-.369528-.06103s-.247003.05989-.349168.13549c-.102164.07561-.1821623.17725-.2316434.29431-.04948103.11707-.0666309.24527-.04965942.37123.04834162.32799.18682082.6361.39999982.89.600279.87189 1.340199 1.63884 2.189999 2.26996.29129.1819.59543.3423.91.48.11953.0534.24909.0807.38.08.05909.0087.11942.0026.17554-.0178.05613-.0204.10629-.0545.14597-.0991.03968-.0447.06763-.0985.08134-.1566.0137-.0582.01272-.1188-.00285-.1765-.03805-.1582-.09164-.3123-.16-.46-.23175-.41763-.49238-.8186-.78-1.19996z"/><path d="m23.5302 5.83008c.08 0 .1 0 .08 0l.16-.16c.4055-.59043.6345-1.28417.66-2 .06-.83.06-1.66.08-2.49.01-.13315.01-.266851 0-.399998-.0163-.194749-.0986-.378116-.2331-.519897s-.3133-.2335195-.5069-.26010321c-.2016-.00270239-.3984.06163141-.5595.18289921-.1611.121269-.2773.292603-.3305.487101-.0599.201496-.0935.409888-.1.619998 0 .77-.06 1.55-.06 2.32.0219.42522.0855.84725.19 1.26.0934.38037.3117.7184.62.96z"/><path d="m33.44 8.29014c.3041-.1549.5837-.3537.83-.59.7668-.79214 1.438-1.67148 2-2.62.0553-.11877.0988-.2427.13-.37.0362-.14217.0299-.29184-.0181-.43048s-.1356-.26016-.2519-.34952c-.1267-.10209-.2808-.16421-.4429-.17845-.162-.01425-.3246.02002-.4671.09845-.1862.09841-.3497.23466-.48.4-.4204.47553-.8112.97647-1.17 1.5-.2631.43265-.4873.88777-.67 1.36-.0983.19013-.1495.40101-.1495.615 0 .214.0512.42488.1495.615.1812.0013.3621-.01545.54-.05z"/></g></svg>
