<svg height="24" viewBox="0 0 24 24" width="24" xmlns="http://www.w3.org/2000/svg"><path d="m10.707031 3.589844-7.847656 7.847656c-.789062.789063-.789062 2.066406 0 2.855469l5.707031 5.707031h7.132813l5.707031-5.707031c.789063-.789063.789063-2.066406 0-2.855469l-7.847656-7.847656c-.785156-.789063-2.066406-.789063-2.851563 0zm2.140625 13.554687-.714843.714844c-.394532.394531-1.03125.394531-1.425782 0l-.714843-.714844 1.429687-1.425781zm.710938-4.992187-3.566406 3.566406c-.394532.394531-1.03125.394531-1.425782 0l-.714843-.710937 4.28125-4.28125zm0-4.28125-5.707031 5.707031c-.394532.394531-1.03125.394531-1.425782 0l-.714843-.710937 6.421875-6.421875z" fill="#ffffff"/></svg>
