<svg xmlns="http://www.w3.org/2000/svg" width="157" height="36" viewBox="0 0 157 36">
    <g fill="#D61420" fill-rule="evenodd">
        <path d="M15.357 22.222c0-7.895 1.916-13.09 5.041-13.09 3.126 0 5.041 5.195 5.041 13.09 0 8.143-1.713 13.19-5.04 13.19-3.328 0-5.042-5.047-5.042-13.19m5.848-.05c0-7.344-.454-8.244-.807-8.244-.352 0-.806.9-.806 8.243 0 7.744.454 8.544.806 8.544.353 0 .807-.8.807-8.544M37.134 35.061h-4.587l-.958-18.485h-.252c-.454 6.545-.605 11.941-.706 18.485h-4.285c.404-8.593.958-16.986 1.765-25.58h5.696l.958 18.786h.151l.958-18.786h5.696c.807 8.594 1.361 16.987 1.765 25.58H39.05c-.1-6.544-.252-11.94-.706-18.485h-.252l-.958 18.485zM54.223 29.716c0 .85.404 1.748 1.009 2.148l-2.622 3.597c-.907-.35-1.613-1.199-2.067-1.998-.554 1-1.411 1.998-2.57 1.998-2.42 0-3.832-4.046-3.832-8.793 0-4.347 2.168-7.994 5.747-8.893v-.1c0-3.297-.907-4.496-2.37-4.496-.654 0-1.714.45-2.167.799V9.881c.453-.3 2.168-.749 2.823-.749 2.47 0 6.05.45 6.05 10.042v10.542zm-4.335 1.149V22.12c-1.16.75-1.462 2.648-1.462 4.447 0 2.598.555 4.247 1.462 4.297zM62.188 33.713c-.756.999-1.915 1.748-3.226 1.748-2.218 0-3.126-2.048-3.126-5.795V9.48h4.336v20.035c0 1.099.15 1.749.705 1.749.656 0 .706-.95.706-1.75V9.482h4.336v20.035c0 1.099.15 1.749.756 1.749.655 0 .655-.95.655-1.75V9.482h4.335v20.535c0 .85.303 1.598.908 1.998L69.9 35.461c-.958-.4-1.613-1.099-2.067-1.698-.756 1-1.664 1.698-2.874 1.698-1.36 0-2.318-.6-2.772-1.748M83 9v26h-4.278V23.777h-1.443V35H73V9h4.279v10.613h1.443V9zM89.305 29.171c0 1.118.15 1.778.751 1.778.65 0 .65-.965.65-1.778V8.8h4.305v20.88c0 .864.3 1.626.901 2.032l-2.653 3.506c-.95-.407-1.601-1.118-2.052-1.727-.75 1.016-1.651 1.727-2.953 1.727-2.702 0-3.253-2.591-3.253-6.401V8.799h4.304V29.17zM100.817 29.171c0 1.118.15 1.778.75 1.778.651 0 .651-.965.651-1.778V8.8h4.305v20.88c0 .864.3 1.626.9 2.032l-2.652 3.506c-.95-.407-1.602-1.118-2.052-1.727-.751 1.016-1.652 1.727-2.953 1.727-2.703 0-3.253-2.591-3.253-6.401V8.799h4.304V29.17zM118.285.366c3.703 0 6.005 4.216 6.005 17.375 0 13.158-2.302 17.476-6.005 17.476-3.704 0-6.007-4.318-6.007-17.476 0-13.159 2.303-17.375 6.007-17.375m0 29.415c1.05 0 1.2-7.265 1.2-11.99 0-4.724-.15-11.99-1.2-11.99-1.052 0-1.202 7.266-1.202 11.99 0 4.725.15 11.99 1.202 11.99M130.046 19.62c0 1.118.2 1.778.701 1.778.55 0 .7-.965.7-1.778V8.8h4.305V34.81h-4.254V24.65c-.6.864-1.302 1.473-2.603 1.473-2.102 0-3.103-2.083-3.103-5.893V8.799h4.254V19.62zM146.963 29.374c0 .865.4 1.778 1.001 2.185l-2.603 3.658c-.9-.356-1.601-1.22-2.051-2.032-.551 1.016-1.402 2.032-2.553 2.032-2.403 0-3.804-4.115-3.804-8.942 0-4.42 2.152-8.128 5.706-9.043v-.1c0-3.354-.9-4.573-2.353-4.573-.65 0-1.701.457-2.152.812V9.205c.45-.305 2.152-.761 2.803-.761 2.452 0 6.006.456 6.006 10.211v10.72zm-4.304 1.169v-8.89c-1.151.761-1.452 2.692-1.452 4.52 0 2.643.551 4.32 1.452 4.37zM148.815 9.358c.6-.458 2.102-.915 3.353-.915 2.553 0 4.204 2.44 4.204 5.233 0 2.032-.8 4.98-2.101 8.738-.701 1.93-1.502 4.217-1.502 6.402 0 1.88.75 2.387 1.451 2.387.551 0 1.302-.457 2.002-1.117V34.2c-.65.508-1.951.965-2.902.965-3.053 0-4.955-2.641-4.955-5.537 0-3.607 1.05-5.996 2.002-8.79.55-1.676 1.751-4.826 1.751-6.553 0-1.32-.55-1.93-1.35-1.93-.501 0-1.353.355-1.953.914V9.358zM100.5 0l-.804 2.707L97 2.673l2.2 1.64L98.337 7l2.163-1.694L102.662 7l-.862-2.687 2.2-1.64-2.697.034zM2.161 34.652V5.822C1.18 6.12.541 6.567 0 6.816V2.044C1.032 1.596 2.456 1 5.305 1 11.74 1 14 9.202 14 17.056 14 26.848 11.986 35 4.765 35c-.786 0-1.916-.099-2.604-.348M6.828 6.269v23.76c1.523-1.69 2.358-7.406 2.358-12.675 0-4.921-.639-9.295-2.358-11.085"/>
    </g>
</svg>
