<?xml version="1.0" encoding="UTF-8"?>
<svg width="13px" height="12px" viewBox="0 0 13 12" version="1.1" xmlns="http://www.w3.org/2000/svg" xmlns:xlink="http://www.w3.org/1999/xlink">
    <!-- Generator: Sketch 52.1 (67048) - http://www.bohemiancoding.com/sketch -->
    <title>Path</title>
    <desc>Created with Sketch.</desc>
    <g id="Page-1" stroke="none" stroke-width="1" fill="none" fill-rule="evenodd">
        <g id="test" transform="translate(-10.000000, -13.000000)" fill="#000000">
            <g id="圖層_1" transform="translate(10.000000, 13.000000)">
                <path d="M13,3.49104547 C13,3.24629725 12.9744875,3.0077452 12.9267125,2.77718292 C12.5983,1.19161888 11.198525,2.8964701e-16 9.520875,2.8964701e-16 C8.801,2.8964701e-16 8.1323125,0.219474414 7.577375,0.595157214 C7.1342375,0.895181672 6.7660125,1.29630133 6.5,1.76362203 C6.2339875,1.29630133 5.8657625,0.895181672 5.422625,0.595157214 C4.8676875,0.219474414 4.199,0 3.479125,0 C1.801475,0 0.4017,1.19161888 0.0732875,2.77718292 C0.0255125,3.0077452 0,3.24629725 0,3.49104547 C0,3.54452809 0.003575,3.59719542 0.0060125,3.65002582 C0.0056875,3.67595184 0.0040625,3.7013887 0.0040625,3.72731473 C0.0040625,7.33364133 6.5,12 6.5,12 C6.5,12 12.9959375,7.33364133 12.9959375,3.72747778 C12.9959375,3.70155176 12.9943125,3.67595184 12.9939875,3.65018887 C12.996425,3.59719542 13,3.54452809 13,3.49104547 Z" id="Path"></path>
            </g>
        </g>
    </g>
</svg>