<svg width="19" height="15" viewBox="0 0 19 15" fill="none" xmlns="http://www.w3.org/2000/svg">
<path d="M8.34393 3.75164V0.562678C8.34393 0.336931 8.20715 0.132933 7.99783 0.0444344C7.78926 -0.0433146 7.54517 0.000934884 7.3827 0.159183L0.959405 6.34661C0.849075 6.45236 0.787109 6.59785 0.787109 6.7501C0.787109 6.90235 0.849075 7.04785 0.959405 7.1536L7.3827 13.341C7.54668 13.4985 7.79001 13.5428 7.99783 13.4558C8.20715 13.3673 8.34393 13.1633 8.34393 12.9375V9.75006H9.41548C12.9188 9.75006 16.1486 11.64 17.8436 14.679L17.8595 14.7075C17.9607 14.8905 18.1527 15 18.3567 15C18.4036 15 18.4504 14.9948 18.4973 14.9827C18.7482 14.919 18.9235 14.6948 18.9235 14.4375C18.9235 8.60708 14.1952 3.85214 8.34393 3.75164Z" fill="#F796B7"/>
</svg>
