<svg width="18" height="15" viewBox="0 0 18 15" fill="none" xmlns="http://www.w3.org/2000/svg">
<path d="M16.5721 1.46794C15.6403 0.521344 14.3617 0 12.9717 0C11.9327 0 10.9811 0.307687 10.1434 0.914443C9.7207 1.22071 9.33769 1.59542 9 2.03277C8.66245 1.59555 8.2793 1.22071 7.85646 0.914443C7.01889 0.307687 6.06734 0 5.02831 0C3.63826 0 2.35959 0.521344 1.42781 1.46794C0.507156 2.40348 0 3.68157 0 5.06693C0 6.49281 0.567307 7.79804 1.78528 9.17466C2.87485 10.406 4.44081 11.6561 6.25424 13.1036C6.87346 13.5979 7.57535 14.1582 8.30415 14.7551C8.49669 14.913 8.74374 15 9 15C9.25612 15 9.50331 14.913 9.69557 14.7553C10.4244 14.1584 11.1267 13.5978 11.7462 13.1032C13.5593 11.656 15.1253 10.406 16.2149 9.17453C17.4328 7.79804 18 6.49281 18 5.0668C18 3.68157 17.4928 2.40348 16.5721 1.46794Z" fill="#F796B7"/>
</svg>
