<svg fill="none" height="26" viewBox="0 0 143 26" width="143" xmlns="http://www.w3.org/2000/svg" xmlns:xlink="http://www.w3.org/1999/xlink"><mask id="a" height="26" maskUnits="userSpaceOnUse" width="143" x="0" y="0"><path clip-rule="evenodd" d="m0 0h142.235v26h-142.235z" fill="#fff" fill-rule="evenodd"/></mask><mask id="b" height="26" maskUnits="userSpaceOnUse" width="143" x="0" y="0"><path clip-rule="evenodd" d="m0 0h142.235v26h-142.235z" fill="#fff" fill-rule="evenodd"/></mask><mask id="c" height="26" maskUnits="userSpaceOnUse" width="143" x="0" y="0"><path clip-rule="evenodd" d="m0 0h142.235v26h-142.235z" fill="#fff" fill-rule="evenodd"/></mask><mask id="d" height="26" maskUnits="userSpaceOnUse" width="143" x="0" y="0"><path clip-rule="evenodd" d="m0 0h142.235v26h-142.235z" fill="#fff" fill-rule="evenodd"/></mask><mask id="e" height="26" maskUnits="userSpaceOnUse" width="143" x="0" y="0"><path clip-rule="evenodd" d="m0 0h142.235v26h-142.235z" fill="#fff" fill-rule="evenodd"/></mask><mask id="f" height="26" maskUnits="userSpaceOnUse" width="143" x="0" y="0"><path clip-rule="evenodd" d="m0 0h142.235v26h-142.235z" fill="#fff" fill-rule="evenodd"/></mask><g mask="url(#a)"><path d="m8.33529 9.55882c0-4.12941-.53529-5.65882-1.68235-5.65882-.91765 0-1.91176.61176-1.91176 9.1 0 8.2588.45882 9.1 1.91176 9.1 1.52941 0 1.83529-2.2941 1.91176-5.9647l3.8235.1529c0 4.3589-.6117 9.6353-5.96467 9.6353-4.81765.0765-6.42353-4.6647-6.42353-12.9235 0-9.55882 2.90588-13 6.5-13 5.2765 0 5.8882 4.81765 5.8882 9.40588z" fill="#fa72a0"/></g><g mask="url(#b)"><path clip-rule="evenodd" d="m25.3883 13c0-9.86471-2.6-13-6.653-13-4.0529 0-6.6529 3.13529-6.6529 13 0 9.8647 2.6 13 6.6529 13 4.053 0 6.653-3.1353 6.653-13zm-6.653 9.1c-1.0706 0-1.6823-1.0706-1.6823-6.5v-5.2765c0-5.42937.6117-6.49996 1.6823-6.49996s1.6824 1.07059 1.6824 6.49996v5.2765c0 5.4294-.6118 6.5-1.6824 6.5z" fill="#fa72a0" fill-rule="evenodd"/></g><g mask="url(#c)"><path d="m29.2117 18.2765c0 1.3764 0 3.9 1.9883 3.9 1.5294 0 2.0647-1.3765 2.0647-2.4471 0-4.4353-8.2589-5.5059-8.2589-12.92352-.0764-3.74706 1.9883-6.80588 5.8118-6.80588 4.1294 0 5.6588 3.13529 5.8118 7.64706h-4.053c0-1.37647 0-3.74706-1.8353-3.74706-1.0706 0-1.6823.91765-1.6823 2.29412 0 4.28238 8.2588 5.65878 8.2588 12.99998 0 3.8235-2.1412 6.8824-6.2706 6.8824-4.8941 0-5.8882-4.2824-5.8882-7.7236h4.0529z" fill="#fa72a0"/></g><path d="m47.0293.458801-2.1411 12.847099h-.0765l-1.9882-12.847099h-6.1177v25.082399h3.3647v-18.35299h.0765l3.0588 18.35299h2.5235l3.1353-18.35299h.0765v18.35299h4.0529v-25.082399z" fill="#fa72a0"/><g mask="url(#d)"><path clip-rule="evenodd" d="m66.2999 13c0-9.86471-2.6-13-6.6529-13-4.053 0-6.653 3.13529-6.653 13 0 9.8647 2.6 13 6.653 13 4.0529 0 6.6529-3.1353 6.6529-13zm-6.6529 9.1c-1.0706 0-1.6823-1.0706-1.6823-6.5v-5.2765c0-5.42937.6117-6.49996 1.6823-6.49996s1.6824 1.07059 1.6824 6.49996v5.2765c0 5.4294-.6118 6.5-1.6824 6.5z" fill="#fa72a0" fill-rule="evenodd"/></g><g mask="url(#e)"><path clip-rule="evenodd" d="m70.8882.458801h-4.5883v25.005899h4.5883v-10.0177h1.8353c4.2823 0 6.0411-2.9823 6.0411-7.49408 0-5.42941-2.7529-7.494119-7.8764-7.494119zm.3824 11.394099h-.3824v-7.49411h.3824c1.5294 0 2.9059.15294 2.9059 3.74706 0 2.98235-1.0706 3.74705-2.9059 3.74705z" fill="#fa72a0" fill-rule="evenodd"/></g><g mask="url(#f)"><path clip-rule="evenodd" d="m91.7647 13c0-9.86471-2.6-13-6.6529-13s-6.6529 3.13529-6.6529 13c0 9.8647 2.6 13 6.6529 13s6.6529-3.1353 6.6529-13zm-6.6529 9.1c-1.0705 0-1.6823-1.0706-1.6823-6.5v-5.2765c0-5.42937.6118-6.49996 1.6823-6.49996 1.0706 0 1.6824 1.07059 1.6824 6.49996v5.2765c0 5.4294-.6118 6.5-1.6824 6.5z" fill="#fa72a0" fill-rule="evenodd"/></g><g fill="#fa72a0"><path d="m91.7648.458801v25.082399h10.4002v-3.9h-5.8885v-21.182399z"/><path d="m102.318.458801h4.588v25.005899h-4.588z"/><path d="m107.135.458801v3.899999h3.9v21.1824h4.589v-21.1824h3.9v-3.899999z"/><path clip-rule="evenodd" d="m116.694 25.4647 3.518-25.005899h6.576l3.059 25.005899h-4.359l-.688-5.5824h-3.671l-.611 5.5824zm7.724-9.1765-1.377-11.92941-1.453 11.92941z" fill-rule="evenodd"/><path d="m138.565.458801v13.229399h-.077l-4.129-13.229399h-4.512v25.082399h3.9v-15.1412h.077l4.894 15.1412h3.517v-25.082399z"/></g></svg>