<svg width="132" height="24" viewBox="0 0 132 24" fill="none" xmlns="http://www.w3.org/2000/svg">
    <mask id="mask0" mask-type="alpha" maskUnits="userSpaceOnUse" x="0" y="0" width="132" height="24">
        <path fill-rule="evenodd" clip-rule="evenodd" d="M0 0H131.294V24H0V0Z" fill="white"/>
    </mask>
    <g mask="url(#mask0)">
        <path d="M7.69412 8.82353C7.69412 5.01176 7.2 3.6 6.14118 3.6C5.29412 3.6 4.37647 4.16471 4.37647 12C4.37647 19.6235 4.8 20.4 6.14118 20.4C7.55294 20.4 7.83529 18.2824 7.90588 14.8941L11.4353 15.0353C11.4353 19.0588 10.8706 23.9294 5.92941 23.9294C1.48235 24 0 19.6235 0 12C0 3.17647 2.68235 0 6 0C10.8706 0 11.4353 4.44706 11.4353 8.68235L7.69412 8.82353Z" fill="#FA72A0"/>
    </g>
    <mask id="mask1" mask-type="alpha" maskUnits="userSpaceOnUse" x="0" y="0" width="132" height="24">
        <path fill-rule="evenodd" clip-rule="evenodd" d="M0 0H131.294V24H0V0Z" fill="white"/>
    </mask>
    <g mask="url(#mask1)">
        <path fill-rule="evenodd" clip-rule="evenodd" d="M23.4347 12C23.4347 2.89412 21.0347 0 17.2935 0C13.5523 0 11.1523 2.89412 11.1523 12C11.1523 21.1059 13.5523 24 17.2935 24C21.0347 24 23.4347 21.1059 23.4347 12ZM17.2935 20.4C16.3053 20.4 15.7406 19.4118 15.7406 14.4V9.52941C15.7406 4.51765 16.3053 3.52941 17.2935 3.52941C18.2818 3.52941 18.8465 4.51765 18.8465 9.52941V14.4C18.8465 19.4118 18.2818 20.4 17.2935 20.4Z" fill="#FA72A0"/>
    </g>
    <mask id="mask2" mask-type="alpha" maskUnits="userSpaceOnUse" x="0" y="0" width="132" height="24">
        <path fill-rule="evenodd" clip-rule="evenodd" d="M0 0H131.294V24H0V0Z" fill="white"/>
    </mask>
    <g mask="url(#mask2)">
        <path d="M26.9643 16.8706C26.9643 18.1412 26.9643 20.4706 28.7996 20.4706C30.2114 20.4706 30.7055 19.2 30.7055 18.2118C30.7055 14.1176 23.082 13.1294 23.082 6.28235C23.0114 2.82353 24.9173 0 28.4467 0C32.2584 0 33.6702 2.89412 33.8114 7.05882H30.0702C30.0702 5.78824 30.0702 3.6 28.3761 3.6C27.3879 3.6 26.8231 4.44706 26.8231 5.71765C26.8231 9.67059 34.4467 10.9412 34.4467 17.7176C34.4467 21.2471 32.4702 24.0706 28.6584 24.0706C24.1408 24.0706 23.2231 20.1176 23.2231 16.9412H26.9643V16.8706Z" fill="#FA72A0"/>
    </g>
    <path d="M43.4122 0.423584L41.4358 12.2824H41.3652L39.5299 0.423584H33.8828V23.5765H36.9887V6.63535H37.0593L39.8828 23.5765H42.2122L45.1063 6.63535H45.1769V23.5765H48.9181V0.423584L43.4122 0.423584Z" fill="#FA72A0"/>
    <mask id="mask3" mask-type="alpha" maskUnits="userSpaceOnUse" x="0" y="0" width="132" height="24">
        <path fill-rule="evenodd" clip-rule="evenodd" d="M0 0H131.294V24H0V0Z" fill="white"/>
    </mask>
    <g mask="url(#mask3)">
        <path fill-rule="evenodd" clip-rule="evenodd" d="M61.2003 12C61.2003 2.89412 58.8003 0 55.0591 0C51.318 0 48.918 2.89412 48.918 12C48.918 21.1059 51.318 24 55.0591 24C58.8003 24 61.2003 21.1059 61.2003 12ZM55.0591 20.4C54.0709 20.4 53.5062 19.4118 53.5062 14.4V9.52941C53.5062 4.51765 54.0709 3.52941 55.0591 3.52941C56.0474 3.52941 56.6121 4.51765 56.6121 9.52941V14.4C56.6121 19.4118 56.0474 20.4 55.0591 20.4Z" fill="#FA72A0"/>
    </g>
    <mask id="mask4" mask-type="alpha" maskUnits="userSpaceOnUse" x="0" y="0" width="132" height="24">
        <path fill-rule="evenodd" clip-rule="evenodd" d="M0 0H131.294V24H0V0Z" fill="white"/>
    </mask>
    <g mask="url(#mask4)">
        <path fill-rule="evenodd" clip-rule="evenodd" d="M65.4345 0.423584H61.1992V23.5059H65.4345V14.2589H67.1286C71.0816 14.2589 72.7051 11.5059 72.7051 7.34123C72.7051 2.32947 70.1639 0.423584 65.4345 0.423584ZM65.7875 10.9412H65.4345V4.02358H65.7875C67.1992 4.02358 68.4698 4.16476 68.4698 7.48241C68.4698 10.2353 67.4816 10.9412 65.7875 10.9412Z" fill="#FA72A0"/>
    </g>
    <mask id="mask5" mask-type="alpha" maskUnits="userSpaceOnUse" x="0" y="0" width="132" height="24">
        <path fill-rule="evenodd" clip-rule="evenodd" d="M0 0H131.294V24H0V0Z" fill="white"/>
    </mask>
    <g mask="url(#mask5)">
        <path fill-rule="evenodd" clip-rule="evenodd" d="M84.7062 12C84.7062 2.89412 82.3062 0 78.565 0C74.8238 0 72.4238 2.89412 72.4238 12C72.4238 21.1059 74.8238 24 78.565 24C82.3062 24 84.7062 21.1059 84.7062 12ZM78.565 20.4C77.5768 20.4 77.0121 19.4118 77.0121 14.4V9.52941C77.0121 4.51765 77.5768 3.52941 78.565 3.52941C79.5532 3.52941 80.1179 4.51765 80.1179 9.52941V14.4C80.1179 19.4118 79.5532 20.4 78.565 20.4Z" fill="#FA72A0"/>
    </g>
    <path d="M84.7051 0.423584V23.5765H94.3051V19.9765H88.8698V0.423584L84.7051 0.423584Z" fill="#FA72A0"/>
    <path d="M94.4473 0.423584H98.6826V23.5059H94.4473V0.423584Z" fill="#FA72A0"/>
    <path d="M98.8945 0.423584V4.02358H102.495V23.5765H106.73V4.02358H110.33V0.423584L98.8945 0.423584Z" fill="#FA72A0"/>
    <path fill-rule="evenodd" clip-rule="evenodd" d="M107.717 23.5059L110.964 0.423584H117.034L119.858 23.5059H115.834L115.199 18.353H111.811L111.246 23.5059H107.717ZM114.846 15.0353L113.576 4.02358L112.234 15.0353H114.846Z" fill="#FA72A0"/>
    <path d="M127.906 0.423584V12.6353H127.836L124.024 0.423584H119.859V23.5765H123.459V9.60005H123.53L128.048 23.5765H131.295V0.423584L127.906 0.423584Z" fill="#FA72A0"/>
</svg>