<svg width="22" height="24" viewBox="0 0 22 24" fill="none" xmlns="http://www.w3.org/2000/svg">
    <path fill-rule="evenodd" clip-rule="evenodd" d="M14.2 2.60004C18.2 5.50004 19.2 11.1 16.3 15.2L22 21L19.9 23.1L14.2 17.4C11.1 19.6 6.90003 19.6 3.80003 17.4C-0.199974 14.5 -1.19997 8.90004 1.70003 4.80004C4.60003 0.700037 10.2 -0.199963 14.2 2.60004ZM2.00003 10C2.00003 13.9 5.10003 17 9.00003 17C12.9 17 16 13.9 16 10C16 6.10004 12.9 3.00004 9.00003 3.00004C5.10003 3.00004 2.00003 6.10004 2.00003 10Z" fill="#303030"/>
</svg>