<svg fill="none" height="17" viewBox="0 0 16 17" width="16" xmlns="http://www.w3.org/2000/svg"><path clip-rule="evenodd" d="m10.3187 1.17805c2.9135 2.11227 3.6419 6.19115 1.5296 9.17745l4.1517 4.2246-1.5296 1.5296-4.1517-4.1518c-2.25795 1.6025-5.3171 1.6025-7.57505 0-2.91349-2.11224-3.641861-6.19112-1.52958-9.17744 2.11227-2.986319 6.19115-3.641853 9.10463-1.60241zm-8.88614 5.39005c0 2.84064 2.25795 5.0986 5.0986 5.0986 2.84064 0 5.09864-2.25796 5.09864-5.0986 0-2.84065-2.258-5.0986-5.09864-5.0986-2.84065 0-5.0986 2.25795-5.0986 5.0986z" fill="#8b8b8b" fill-rule="evenodd"/></svg>