<svg fill="none" height="15" viewBox="0 0 19 15" width="19" xmlns="http://www.w3.org/2000/svg"><path d="m8.34393 3.75164v-3.188962c0-.225747-.13678-.429745-.3461-.5182436-.20857-.087749-.45266-.04349952-.61513.1147486l-6.423295 6.187427c-.11033.10575-.172296.25124-.172296.40349s.061966.29775.172296.4035l6.423295 6.1874c.16398.1575.40731.2018.61513.1148.20932-.0885.3461-.2925.3461-.5183v-3.18744h1.07155c3.50332 0 6.73312 1.88994 8.42812 4.92894l.0159.0285c.1012.183.2932.2925.4972.2925.0469 0 .0937-.0052.1406-.0173.2509-.0637.4262-.2879.4262-.5452 0-5.83042-4.7283-10.58536-10.57957-10.68586z" fill="#f796b7"/></svg>