<svg width="27" height="26" viewBox="0 0 27 26" fill="none" xmlns="http://www.w3.org/2000/svg">
<path d="M23.9754 18.6579L23.9733 18.6579L13.4979 18.7018C13.3571 18.7024 13.2232 18.7623 13.1288 18.8668L7.86364 24.6999V19.2018C7.86364 18.9257 7.63978 18.7018 7.36364 18.7018H3.02461C1.63379 18.7018 0.5 17.5651 0.5 16.1556V3.09009C0.5 1.68063 1.63379 0.543879 3.02461 0.54388L3.02566 0.543878L23.9748 0.5C23.9749 0.5 23.9751 0.5 23.9753 0.5C25.3665 0.500271 26.5 1.63698 26.5 3.04621V16.1117C26.5 17.5212 25.3662 18.6579 23.9754 18.6579Z" fill="#E8E8E8" stroke="#E8E8E8" stroke-linejoin="round"/>
</svg>
