<svg fill="none" height="30" viewBox="0 0 30 30" width="30" xmlns="http://www.w3.org/2000/svg"><circle cx="14.6286" cy="14.6286" fill="#fff" r="13.8786" stroke="#303030" stroke-width="1.5"/><path d="m10.4167 23.2096-4.24916 2.2784c-.24935.1336-.47344.2979-.68194.477 2.47736 2.0534 5.6754 3.2921 9.1695 3.2921 3.4683 0 6.6458-1.2203 9.1162-3.2456-.2278-.1891-.475-.3592-.7491-.4934l-4.5501-2.2362c-.5879-.2889-.9592-.8795-.9592-1.5256v-1.7549c.1279-.1432.2741-.327.4304-.5441.6202-.8611 1.0893-1.8083 1.4144-2.8019.5836-.177 1.0136-.7069 1.0136-1.3366v-1.8732c0-.412-.1865-.7802-.4762-1.038v-2.70791s.5659-4.21398-5.2395-4.21398c-5.80542 0-5.23955 4.21398-5.23955 4.21398v2.70791c-.29019.2578-.47612.626-.47612 1.038v1.8732c0 .4934.26386.9277.65884 1.1786.47613 2.0375 1.72283 3.504 1.72283 3.504v1.7116c-.0005.6233-.3477 1.1976-.9049 1.4966z" fill="#303030"/></svg>