<svg fill="none" height="32" viewBox="0 0 32 32" width="32" xmlns="http://www.w3.org/2000/svg"><circle cx="16" cy="16" fill="#fff" r="15.25" stroke="#f796b7" stroke-width="1.5"/><path d="m11.3934 25.3855-4.64752 2.492c-.27273.1462-.51783.3259-.74588.5218 2.70961 2.2458 6.2074 3.6007 10.0291 3.6007 3.7935 0 7.2689-1.3347 9.9709-3.5499-.2492-.2069-.5196-.3929-.8193-.5397l-4.9767-2.4457c-.643-.3161-1.0491-.9621-1.0491-1.6687v-1.9194c.1398-.1566.2997-.3577.4708-.5951.6782-.9418 1.1914-1.9778 1.547-3.0646.6383-.1936 1.1085-.7731 1.1085-1.4619v-2.0488c0-.4507-.204-.8534-.5208-1.1354v-2.9617s.6189-4.60905-5.7307-4.60905c-6.34968 0-5.7308 4.60905-5.7308 4.60905v2.9617c-.31736.282-.52072.6847-.52072 1.1354v2.0488c0 .5397.28862 1.0146.72062 1.2891.5207 2.2285 1.8844 3.8325 1.8844 3.8325v1.872c-.0006.6818-.3803 1.3099-.9898 1.6369z" fill="#f796b7"/></svg>