<svg fill="none" height="6" viewBox="0 0 113 6" width="113" xmlns="http://www.w3.org/2000/svg"><path d="m112.571 4.80808c-1.77 0-2.561-.59463-3.655-1.41637-1.25-.94045-2.807-2.1103-5.727-2.1103-2.921 0-4.4762 1.16985-5.7269 2.10915-1.0942.82289-1.8833 1.41638-3.6552 1.41638s-2.561-.59463-3.6541-1.41638c-1.2507-.9393-2.8064-2.11029-5.7242-2.11029-2.9179 0-4.4781 1.17099-5.7288 2.11029-1.0931.82289-1.8833 1.41638-3.6541 1.41638-1.7707 0-2.561-.59463-3.654-1.41638-1.2507-.94044-2.8064-2.11029-5.7265-2.11029s-4.477 1.17099-5.7277 2.11029c-1.093.82289-1.8833 1.41638-3.654 1.41638-1.7708 0-2.561-.59463-3.6541-1.41638-1.2507-.94044-2.8064-2.11029-5.7265-2.11029s-4.4759 1.17099-5.7265 2.11029c-1.0931.82289-1.8833 1.41638-3.6541 1.41638-1.7707 0-2.561-.59463-3.6541-1.41638-1.2506-.9393-2.8075-2.11029-5.7253-2.11029-2.9179 0-4.4781 1.17099-5.7277 2.11029-1.093.82289-1.8833 1.41638-3.654 1.41638-1.7708 0-2.5599-.59463-3.6541-1.41638-1.2507-.94044-2.8064-2.11029-5.72652-2.11029-2.92011 0-4.47584 1.17099-5.72651 2.11029-1.0942.82289-1.88332 1.41752-3.65407 1.41752" stroke="#FF1F6B" stroke-miterlimit="10"/></svg>
