<svg width="25" height="22" viewBox="0 0 25 22" fill="none" xmlns="http://www.w3.org/2000/svg"><path d="M22.1895 2.96468C21.0621 1.69772 19.4981 1 17.7857 1C15.3773 1 13.8525 2.42463 12.9975 3.61978C12.7757 3.92991 12.587 4.24088 12.4286 4.5335C12.2701 4.24088 12.0815 3.92991 11.8596 3.61978C11.0046 2.42463 9.47982 1 7.07143 1C5.35902 1 3.79504 1.69777 2.66763 2.96472C1.59228 4.17332 1 5.79197 1 7.52248C1 9.4062 1.74254 11.1582 3.33683 13.0362C4.7617 14.7146 6.81156 16.4447 9.18527 18.448C10.0698 19.1946 10.9845 19.9666 11.9583 20.8104L11.9875 20.8358C12.1137 20.9453 12.2712 21 12.4286 21C12.586 21 12.7434 20.9453 12.8696 20.8358L12.8989 20.8104C13.8727 19.9666 14.7874 19.1946 15.672 18.448C18.0456 16.4447 20.0954 14.7146 21.5203 13.0362C23.1146 11.1582 23.8571 9.4062 23.8571 7.52248C23.8571 5.79197 23.2649 4.17332 22.1895 2.96468Z" stroke="#303030" stroke-width="2"/></svg>
