<svg fill="none" height="19" viewBox="0 0 19 19" width="19" xmlns="http://www.w3.org/2000/svg"><g fill="#fff"><path d="m14.4524 0c-1.2141 0-2.3558.473158-3.2146 1.33187l-3.54033 3.54038c.27058-.03778.54089-.07879.81748-.07879.7626 0 1.50985.14815 2.19685.42285l2.2053-2.20526c.4105-.40995.9555-.63608 1.5353-.63608 1.1974 0 2.1715.9741 2.1715 2.17146 0 .57985-.2261 1.12487-.6361 1.53538l-3.9694 3.96949c-.8211.8199-2.24978.8205-3.07083.0006l-1.67804 1.6804c.85816.8576 1.99984 1.3301 3.21337 1.3301 1.2142 0 2.3559-.4731 3.2146-1.3319l3.9696-3.96948c.8587-.85871 1.3318-2.00043 1.3318-3.21459 0-2.50716-2.0393-4.54643-4.5465-4.54643z"/><path d="m8.26628 13.8046-2.18444 2.1844c-.41051.41-.95556.6361-1.53538.6361-1.19735 0-2.17146-.9741-2.17146-2.1715 0-.5798.22613-1.1248.63609-1.5353l3.96953-3.96956c.82105-.81987 2.24974-.82046 3.07078-.00059l1.678-1.68035c-1.7168-1.71515-4.71049-1.7157-6.42796.00173l-3.96957 3.96957c-.858749.8587-1.33187 2.0003-1.33187 3.2145 0 2.5072 2.03927 4.5464 4.54643 4.5464 1.21416 0 2.35584-.4731 3.21459-1.3318l3.49338-3.4934c-.2551.0343-.5088.0753-.7705.0753-.77438 0-1.52438-.1548-2.21762-.4455z"/></g></svg>