<svg fill="none" height="21" viewBox="0 0 21 21" width="21" xmlns="http://www.w3.org/2000/svg" xmlns:xlink="http://www.w3.org/1999/xlink"><mask id="a" height="21" maskUnits="userSpaceOnUse" width="21" x="0" y="0"><path clip-rule="evenodd" d="m0 0h20.9975v21h-20.9975z" fill="#fff" fill-rule="evenodd"/></mask><g mask="url(#a)"><path clip-rule="evenodd" d="m19.0437 14.7435c-.0467 1.0238-.2178 1.5798-.3616 1.9497-.1905.4902-.418.84-.7854 1.2074s-.7172.595-1.2074.7854c-.3699.1438-.9259.3149-1.9497.3616-1.107.0505-1.4391.0612-4.2428.0612-2.80387 0-3.13593-.0107-4.24294-.0612-1.02371-.0467-1.57972-.2178-1.94968-.3616-.49014-.1904-.83992-.418-1.20729-.7854-.36742-.3674-.59502-.7172-.78549-1.2074-.14376-.3699-.31484-.9259-.36152-1.9496-.05053-1.1073-.06123-1.4393-.06123-4.2429 0-2.80366.0107-3.13576.06123-4.24294.04668-1.02371.21776-1.57972.36152-1.94968.19047-.49013.41803-.83991.78544-1.20733.36742-.36742.7172-.59497 1.20734-.78545.36996-.14376.92597-.31484 1.94968-.36155 1.10717-.05049 1.43928-.0612 4.24294-.0612 2.8036 0 3.1356.01071 4.2428.0612 1.0238.04671 1.5798.21779 1.9497.36155.4902.19048.84.41803 1.2074.78545s.5949.7172.7854 1.20733c.1438.36996.3149.92597.3616 1.94968.0505 1.10718.0612 1.43928.0612 4.24294 0 2.8036-.0107 3.1357-.0612 4.2428zm1.8911-8.57262c-.051-1.11763-.2285-1.88089-.4881-2.54879-.2683-.69046-.6274-1.27604-1.2111-1.85977-.5837-.58374-1.1693-.942746-1.8598-1.21107-.6679-.259588-1.4311-.437063-2.5487-.4880859-1.12-.0511055-1.4776-.0631641-4.3292-.0631641-2.85159 0-3.2092.0120586-4.32909.0631641-1.11764.0510229-1.8809.2284979-2.5488.4880859-.69045.268324-1.27603.62733-1.85977 1.21107-.58373.58373-.942741 1.16931-1.211065 1.85977-.259588.6679-.437063 1.43116-.4880861 2.54879-.0511055 1.11989-.0631641 1.47747-.0631641 4.32912 0 2.8516.0120586 3.2092.0631641 4.3292.0510231 1.1176.2284981 1.8808.4880861 2.5487.268324.6904.627335 1.276 1.211065 1.8598.58374.5837 1.16932.9428 1.85977 1.2111.6679.2595 1.43116.4371 2.5488.488 1.11989.0511 1.4775.0632 4.32909.0632 2.8516 0 3.2092-.0121 4.3292-.0632 1.1176-.0509 1.8808-.2285 2.5487-.488.6905-.2683 1.2761-.6274 1.8598-1.2111.5837-.5838.9428-1.1693 1.2111-1.8598.2596-.6679.4371-1.4311.4881-2.5487.051-1.12.0631-1.4776.0631-4.3292 0-2.85161-.0121-3.20923-.0631-4.32912z" fill="#ff508b" fill-rule="evenodd"/></g><g clip-rule="evenodd" fill="#ff508b" fill-rule="evenodd"><path d="m10.6668 14.0004c-1.93305 0-3.50005-1.567-3.50005-3.5 0-1.93299 1.567-3.49999 3.50005-3.49999 1.9329 0 3.5 1.567 3.5 3.49999 0 1.933-1.5671 3.5-3.5 3.5zm.0017-8.89249c-2.97787 0-5.39189 2.41402-5.39189 5.39189 0 2.9778 2.41402 5.3919 5.39189 5.3919 2.9779 0 5.3919-2.4141 5.3919-5.3919 0-2.97787-2.414-5.39189-5.3919-5.39189z"/><path d="m16.2717 3.63574c-.6959 0-1.26.56413-1.26 1.26004 0 .69587.5641 1.25996 1.26 1.25996s1.26-.56409 1.26-1.25996c0-.69591-.5641-1.26004-1.26-1.26004z"/></g></svg>