<svg fill="none" height="19" viewBox="0 0 13 19" width="13" xmlns="http://www.w3.org/2000/svg" xmlns:xlink="http://www.w3.org/1999/xlink"><mask id="a" height="10" maskUnits="userSpaceOnUse" width="13" x="0" y="9"><path clip-rule="evenodd" d="m0 9.5h12.1925v9.5h-12.1925z" fill="#fff" fill-rule="evenodd"/></mask><path clip-rule="evenodd" d="m5.82616 2.78413c1.11317 0 2.01924.88215 2.01924 1.96694 0 1.08343-.90607 1.96603-2.01924 1.96603-1.11286 0-2.01909-.8826-2.01909-1.96603 0-1.08479.90623-1.96694 2.01909-1.96694zm.00095 6.71587c2.68951 0 4.87689-2.13009 4.87689-4.74903 0-2.62014-2.18738-4.75097-4.87689-4.75097s-4.877159 2.13083-4.877159 4.75097c0 2.61894 2.187649 4.74903 4.877159 4.74903z" fill="#ff508b" fill-rule="evenodd"/><g mask="url(#a)"><path clip-rule="evenodd" d="m8.29409 13.5339c1.10573-.2394 2.17281-.6548 3.15441-1.2414.7437-.4448.9675-1.3783.4993-2.0845-.468-.70766-1.4503-.92048-2.19469-.47551-2.22513 1.32921-5.08983 1.32851-7.31376 0-.74473-.44497-1.726652-.23215-2.194354.47551-.468558.7068-.24488137 1.6397.498996 2.0845.981578.5859 2.048138 1.002 3.153698 1.2414l-3.036559 2.8853c-.621095.5905-.621095 1.5472.000684 2.138.311065.2947.717715.4426 1.124535.4426.40802 0 .81536-.1479 1.12608-.4426l2.98354-2.8353 2.9856 2.8353c.62041.5904 1.62813.5904 2.24923 0 .6228-.5908.6228-1.5482 0-2.138z" fill="#ff508b" fill-rule="evenodd"/></g></svg>