<svg fill="none" height="18" viewBox="0 0 24 18" width="24" xmlns="http://www.w3.org/2000/svg"><path clip-rule="evenodd" d="m20.841 2.84564c1.0009-.56222 1.769-1.4518 2.1315-2.51353-.9365.520869-1.9743.89873-3.0779 1.1024-.8841-.882801-2.1439-1.43451-3.5388-1.43451-2.6763 0-4.8469 2.03502-4.8469 4.54414 0 .35617.043.70285.1261 1.03564-4.02821-.18944-7.5999-1.99842-9.99067-4.748489-.41714.670999-.656431 1.452129-.656431 2.284779 0 1.57616.856321 2.96764 2.156171 3.78232-.79415-.02338-1.54203-.22773-2.19521-.56899-.000361.01932-.000361.03863-.000361.05761 0 2.20209 1.671441 4.03849 3.888341 4.45539-.40629.1047-.83536.1596-1.27672.1596-.31303 0-.6163-.0282-.91199-.081.61667 1.8052 2.40631 3.1191 4.52779 3.1557-1.65915 1.2193-3.74882 1.9452-6.0203 1.9452-.390387 0-.77716-.0213-1.15562-.0637 2.14388 1.2898 4.69225 2.0418 7.42931 2.0418 8.91529 0 13.79079-6.9238 13.79079-12.92957 0-.19689-.0047-.39311-.0141-.58763.9478-.6405 1.7694-1.44061 2.419-2.35188-.869.36126-1.8037.6056-2.784.71472z" fill="#ff508b" fill-rule="evenodd"/></svg>