<svg fill="none" height="13" viewBox="0 0 23 13" width="23" xmlns="http://www.w3.org/2000/svg"><path clip-rule="evenodd" d="m22.4588.902135c.1705-.508897 0-.8790033-.7552-.8790033h-2.5089c-.6333 0-.9256.3238433-1.0962.6708183 0 0-1.291 2.96085-3.0935 4.88078-.5846.55516-.8526.74022-1.1692.74022-.1705 0-.3898-.18506-.3898-.69395v-4.741996c0-.601424-.1948-.879004-.7307-.879004h-3.94615c-.38974 0-.63333.27758-.63333.55516 0 .57829.90128.71708.99871 2.3363v3.51601c0 .76335-.14615.90214-.46282.90214-.85255 0-2.92305-2.98399-4.16534-6.384343-.24359-.670819-.48718-.925267-1.1205-.925267h-2.533314c-.730762 0-.852556.323843-.852556.670819 0 .624551.852556 3.770461 3.97048 7.934161 2.07049 2.84522 5.0179 4.37192 7.67302 4.37192 1.6077 0 1.8025-.347 1.8025-.9253v-2.15124c0-.69395.1462-.80961.6577-.80961.3654 0 1.0231.18505 2.509 1.54985 1.7051 1.6192 1.9974 2.3594 2.9474 2.3594h2.5089c.7308 0 1.0718-.347.8769-1.0178-.2192-.6708-1.0474-1.6423-2.1192-2.79893-.5846-.64768-1.4615-1.36476-1.7294-1.71174-.3654-.46263-.268-.64769 0-1.06406-.0244 0 3.0448-4.11743 3.3615-5.505335z" fill="#ff508b" fill-rule="evenodd"/></svg>